<?xml version="1.0" encoding="utf-8"?>
<!-- Generator: Adobe Illustrator 24.0.2, SVG Export Plug-In . SVG Version: 6.00 Build 0)  -->
<svg version="1.1" id="Capa_1" xmlns="http://www.w3.org/2000/svg" xmlns:xlink="http://www.w3.org/1999/xlink" x="0px" y="0px"
	 viewBox="0 0 141.7 102" style="enable-background:new 0 0 141.7 102;" xml:space="preserve">
<style type="text/css">
	.st0{fill:none;stroke:#FFFFFF;stroke-width:5;stroke-miterlimit:10;}
	.st1{fill:#283583;}
</style>
<g id="filete">
	<polygon class="st0" points="71.4,18.1 104.2,50.9 71.4,83.7 136.1,83.7 136.1,18.1 	"/>
	<g>
		<g>
			<g>
				<path class="st0" d="M46.6,76.5v16.4l42-42l-42-42v16.4c7.7,5.9,12.7,15.2,12.7,25.6C59.3,61.4,54.3,70.6,46.6,76.5"/>
			</g>
		</g>
		<g>
			<g>
				<path class="st0" d="M48.3,50.9c0-11.8-9.5-21.3-21.3-21.3S5.7,39.1,5.7,50.9S15.2,72.2,27,72.2S48.3,62.7,48.3,50.9"/>
			</g>
		</g>
	</g>
</g>
<g id="Capa_1_1_">
	<polygon class="st1" points="71.4,18.1 104.2,50.9 71.4,83.7 136.1,83.7 136.1,18.1 	"/>
	<g>
		<g>
			<g>
				<path class="st1" d="M46.6,76.5v16.4l42-42l-42-42v16.4c7.7,5.9,12.7,15.2,12.7,25.6C59.3,61.4,54.3,70.6,46.6,76.5"/>
			</g>
		</g>
		<g>
			<g>
				<path class="st1" d="M48.3,50.9c0-11.8-9.5-21.3-21.3-21.3S5.7,39.1,5.7,50.9S15.2,72.2,27,72.2S48.3,62.7,48.3,50.9"/>
			</g>
		</g>
	</g>
</g>
</svg>
